<?xml version="1.0" encoding="utf-8"?>
<!-- Generator: Adobe Illustrator 16.0.2, SVG Export Plug-In . SVG Version: 6.00 Build 0)  -->
<!DOCTYPE svg PUBLIC "-//W3C//DTD SVG 1.1//EN" "http://www.w3.org/Graphics/SVG/1.1/DTD/svg11.dtd">
<svg version="1.1" id="Layer_1" xmlns="http://www.w3.org/2000/svg" xmlns:xlink="http://www.w3.org/1999/xlink" x="0px" y="0px"
	 width="500px" height="300px" viewBox="0 0 500 300" enable-background="new 0 0 500 300" xml:space="preserve">
<g>
	<g>
		<g>
			<g>
				<path fill="#F18D42" d="M366.291,83.725c-10.643-4.049-1.049-8.784,5.632-10.674c5.403-1.529,18.937-4.021,13.444-13.245
					c-5.754-9.662-11.264,2.271-15.84,3.618c-10.229,3.011,0.415-9.818,2.955-13.239c3.481-4.687,10.803-14.263,1.762-15.859
					c-7.313-1.29-14.885,8.897-17.919,13.976c-2.161,3.62-7.479,20.575-13.014,16.816c-4.19-2.846,0.146-19.823-9.858-7.688
					c-4.066,4.934-3.411,12.862-5.244,18.505c-2.686,8.267-3.816,11.693-11.155,9.57c-3.803-1.1-3.925-5.872-8.617-2.649
					c-2.417,1.66-3.133,9.298-3.113,11.951c0.188,24.367,9.932,40.686,14.527,42.79c6.223,2.849,17.784-1.266,23.105-4.321
					c2.645-1.521,7.47-4.032,7.131-7.883c-0.383-4.322-7.056-3.701-7.304-6.239c-0.702-7.2,12.542-0.322,16.21-1.348
					c4.75-1.33,12.617-9.815,7.635-14.305c-0.512-0.461-21.215-1.96-9.371-8.551c6.557-3.649,13.589,6.476,19.913-0.713
					C386.273,83.892,370.281,85.243,366.291,83.725z"/>
			</g>
			<path fill="#C6540C" d="M364.524,87.559c-4.573-1.931-9.298-3.673-14.278-4.097c3.503-4.376,7.174-8.711,9.838-13.57
				c0.753-1.37-1.486-2.317-2.232-0.956c-0.325,0.592-0.688,1.168-1.04,1.748c-0.382-1.485,0.077-3.704,0.218-4.888
				c0.358-3.06,1.511-5.809,2.714-8.616c0.616-1.438-1.617-2.396-2.235-0.956c-1.56,3.641-2.793,7.119-3.067,11.098
				c-0.135,1.956-0.252,4.076,0.883,5.694c-3.765,5.588-8.456,10.735-12.382,16.157c-1.679-2.661-2.912-5.43-3.479-8.581
				c-0.619-3.432-0.199-6.92-0.555-10.375c-0.161-1.556-2.572-1.256-2.413,0.302c0.428,4.154-0.059,8.234,0.986,12.331
				c0.786,3.087,2.199,5.816,3.951,8.452c-4.514,6.525-8.682,13.31-12.107,20.473c-1.139,2.38-2.178,4.805-3.184,7.245
				c-2.266-3.388-4.145-6.923-5.45-10.817c-0.725-2.165-1.531-4.46-1.822-6.727c-0.219-1.718-0.037-3.341-0.714-4.97
				c-0.6-1.445-2.856-0.543-2.255,0.904c0.827,1.995,0.547,4.599,1.073,6.732c0.506,2.06,1.135,4.106,1.851,6.103
				c1.464,4.088,3.616,7.796,6.101,11.337c0.038,0.052,0.084,0.074,0.122,0.117c-1.696,4.216-3.355,8.45-5.244,12.574
				c-0.15,0.117-0.285,0.267-0.373,0.49c-0.182,0.463-0.54,1.103-0.659,1.663c-3.375,8.518-6.773,17.03-10.039,25.591
				c-0.557,1.458,1.675,2.421,2.235,0.955c3.253-8.53,6.641-17.013,10.003-25.502c0.021-0.036,0.051-0.058,0.07-0.098
				c1.079-2.224,2.068-4.489,3.023-6.773c4.422,1.125,9.335-0.167,13.459-1.824c1.454-0.583,0.551-2.84-0.903-2.256
				c-3.585,1.44-7.735,2.56-11.61,1.796c2.126-5.221,4.13-10.502,6.552-15.586c0.962-2.023,1.994-4.011,3.071-5.973
				c0.079,0.057,0.146,0.124,0.248,0.165c6.028,2.447,12.532,3.427,18.986,2.413c1.541-0.241,1.248-2.655-0.303-2.411
				c-6.047,0.95-12.073,0.059-17.727-2.236c-0.013-0.004-0.021-0.002-0.034-0.006c3.321-5.792,7.061-11.344,10.99-16.739
				c0.67-0.919,1.366-1.826,2.073-2.73c0.139,0.335,0.421,0.603,0.907,0.642c4.831,0.386,9.366,2.068,13.797,3.939
				C365.009,90.401,365.968,88.167,364.524,87.559z"/>
		</g>
		<path fill="#345194" d="M300.998,190.141c6.205-6.651,11.506-13.739,18.079-19.907c-5.681-8.998-7.905-25.882-6.46-27.647
			c3.246-3.965,7.341,2.214,8.15,5.22c1.462,5.439,0.676,16.821-0.274,21.131c0.781-0.696,1.574-1.382,2.396-2.048
			c1.803-1.463,3.605-2.934,5.407-4.402c-1.678-3.188-5.598-9.794-3.416-20.545c0.366-1.803,1.018-4.167,2.94-4.865
			c2.666-0.971,2.863,2.02,2.936,3.911c0.124,3.245-0.221,14.382-0.088,19.567c3.606-2.944,7.219-5.886,10.844-8.807
			c-2.034-6.672-4.467-14.768-1.481-21.546c1.953-4.435,5.445-0.739,6.221,2.192c1.39,5.251,0.362,11.405-1.508,16.764
			c1.714-1.369,3.431-2.741,5.154-4.095c0.307-0.242,0.621-0.478,0.93-0.718c-1.282-3.19-2.856-6.129-2.98-9.687
			c-0.122-3.504,1.406-6.696,3.659-9.298c0.992-1.147,2.039-2.678,3.701-2.872c2.332-0.272,1.354,2.222,0.916,3.743
			c-0.932,3.236-1.696,6.586-2.27,9.891c-0.315,1.824-0.669,3.525-1.135,5.261c-0.118,0.447-0.191,1.069-0.264,1.705
			c2.473-1.891,4.985-3.743,7.539-5.547c-0.158-5.889-0.31-13.012,3.639-17.855c2.591-3.177,4.604,0.622,4.58,3.188
			c-0.042,3.978-1.713,8.104-3.932,11.703c1.127-0.761,2.26-1.515,3.399-2.256c1.936-6.626,4.235-14.861,10.406-18.815
			c3.924-2.515,4.771,2.402,3.838,5.205c-0.919,2.768-2.578,5.353-4.608,7.671c0.542-0.316,1.079-0.639,1.623-0.95
			c1.272-0.73,2.565-1.406,3.87-2.042c0.875-5.842,1.957-12.929,6.715-17.028c3.104-2.675,4.425,1.417,3.951,3.937
			c-0.752,4.003-3.214,7.859-6.114,11.06c2.041-0.843,4.105-1.615,6.185-2.351c1.439-4.604,3.213-10.158,7.555-12.861
			c2.849-1.772,3.403,1.704,2.701,3.684c-1.018,2.874-3.174,5.467-5.639,7.591c2.289-0.769,4.585-1.53,6.874-2.328
			c1.327-1.724,2.854-3.44,4.219-4.903c1.61-1.728,3.67-3.403,6.199-3.187c3.334,0.285,3.987,2.644,2.118,5.243
			c-0.854,1.188-1.994,1.975-3.279,2.54c1.296,0.243,2.501,0.736,3.303,1.485c2.192,2.05,0.184,4.032-2.197,4.488
			c-2.649,0.508-5.38-0.492-7.949-0.995c-1.905-0.372-3.917-0.185-5.826-0.36c-1.519,0.512-3.037,1.021-4.549,1.539
			c3.946-0.247,8.279,0.223,11.54,2.153c1.808,1.07,3.612,4.093,0.289,4.56c-5.332,0.747-10.51-2.759-14.68-5.436l-0.049-0.259
			c-4.251,1.522-8.443,3.203-12.501,5.355c1.363-0.002,2.699,0.136,3.97,0.457c2.317,0.584,5.262,3.3,1.784,4.881
			c-4.463,2.029-9.696,1.052-14.385-0.227c-4.22,2.642-8.368,5.422-12.424,8.319c4.424-1.553,9.459-2.402,13.793-1.31
			c2.485,0.626,5.641,3.539,1.914,5.233c-5.98,2.718-13.247,0.408-19.054-1.281l-0.077-0.152c-1.881,1.393-3.746,2.806-5.579,4.245
			c-0.889,0.698-1.76,1.413-2.64,2.118c6.054-2.274,12.901-3.654,18.698-2.431c3.321,0.702,7.433,4.381,2.319,6.801
			c-8.17,3.867-17.816,1.221-25.547-0.711c-2.519,2.063-5.03,4.132-7.544,6.199c6.004-0.21,18.429-1.389,22.468-1.438
			c1.891-0.021,6.321,0.427,5.259,3.469c-0.591,1.684-4.009,3.112-5.653,3.504c-3.666,0.874-17.148-0.377-25.962-2.358
			c-1.793,1.45-3.592,2.896-5.414,4.315c-0.675,0.526-1.332,1.061-1.98,1.602c8.861-1.092,26.292-2.063,30.489-0.681
			c2.135,0.704,5.445,2.396,4.916,5.116c-0.55,2.819-4.864,2.655-7.075,3.109c-5.099,1.047-21.244-1.696-24.154-2.632
			c-2.251-0.723-4.436-1.962-6.61-2.795c-1.438,1.3-2.822,2.634-4.165,3.996c6.97,1.438,22.91,3.608,27.897,4.717
			c2.268,0.506,7.446,2.287,5.319,5.63c-1.18,1.849-5.673,2.6-7.752,2.606c-4.398,0.015-18.853-4.752-28.854-9.386
			c-4.137,4.495-8.045,9.188-12.351,13.804C301.982,193.438,299.691,191.543,300.998,190.141z"/>
	</g>
	<g>
		<g>
			<g>
				<path fill="#F18D42" d="M124.063,75.841c10.642-4.049,1.047-8.785-5.633-10.675c-5.404-1.528-18.937-4.021-13.444-13.245
					c5.753-9.662,11.264,2.271,15.84,3.619c10.229,3.011-0.416-9.819-2.956-13.24c-3.481-4.687-10.802-14.262-1.761-15.858
					c7.312-1.291,14.885,8.897,17.918,13.975c2.162,3.62,7.479,20.575,13.014,16.816c4.19-2.846-0.145-19.822,9.857-7.688
					c4.067,4.933,3.412,12.862,5.245,18.505c2.686,8.267,3.817,11.693,11.155,9.571c3.803-1.1,3.926-5.873,8.619-2.649
					c2.417,1.66,3.133,9.298,3.112,11.951c-0.188,24.368-9.932,40.687-14.527,42.791c-6.222,2.847-17.784-1.267-23.104-4.323
					c-2.646-1.519-7.471-4.03-7.131-7.882c0.381-4.322,7.055-3.701,7.303-6.24c0.702-7.199-12.543-0.321-16.21-1.348
					c-4.75-1.329-12.617-9.815-7.634-14.304c0.511-0.461,21.214-1.96,9.371-8.551c-6.557-3.649-13.588,6.476-19.914-0.712
					C104.08,76.008,120.072,77.359,124.063,75.841z"/>
			</g>
			<path fill="#C6540C" d="M125.829,79.674c4.572-1.931,9.298-3.672,14.278-4.097c-3.502-4.376-7.173-8.711-9.839-13.57
				c-0.751-1.371,1.488-2.317,2.235-0.956c0.325,0.592,0.687,1.167,1.038,1.748c0.384-1.485-0.075-3.703-0.215-4.888
				c-0.36-3.06-1.512-5.809-2.715-8.615c-0.616-1.438,1.618-2.396,2.235-0.956c1.561,3.641,2.793,7.119,3.068,11.098
				c0.136,1.956,0.252,4.076-0.883,5.694c3.766,5.588,8.456,10.735,12.383,16.157c1.679-2.661,2.911-5.43,3.479-8.581
				c0.619-3.432,0.2-6.92,0.556-10.375c0.161-1.556,2.573-1.257,2.412,0.302c-0.428,4.154,0.059,8.234-0.986,12.33
				c-0.786,3.087-2.198,5.816-3.951,8.452c4.514,6.525,8.682,13.31,12.107,20.473c1.138,2.379,2.178,4.804,3.183,7.245
				c2.267-3.389,4.146-6.921,5.451-10.816c0.726-2.166,1.531-4.46,1.821-6.728c0.221-1.717,0.039-3.339,0.715-4.968
				c0.6-1.446,2.856-0.543,2.256,0.904c-0.829,1.996-0.548,4.598-1.074,6.732c-0.507,2.059-1.135,4.106-1.851,6.104
				c-1.463,4.086-3.616,7.795-6.101,11.337c-0.037,0.052-0.083,0.072-0.123,0.116c1.698,4.216,3.357,8.449,5.245,12.574
				c0.151,0.118,0.285,0.267,0.374,0.491c0.182,0.462,0.54,1.101,0.659,1.663c3.375,8.518,6.773,17.03,10.039,25.591
				c0.557,1.456-1.676,2.42-2.234,0.955c-3.254-8.529-6.641-17.013-10.004-25.501c-0.021-0.037-0.05-0.06-0.069-0.099
				c-1.079-2.223-2.069-4.49-3.024-6.771c-4.421,1.124-9.335-0.169-13.459-1.825c-1.454-0.583-0.55-2.84,0.904-2.255
				c3.585,1.439,7.736,2.56,11.61,1.795c-2.125-5.221-4.129-10.5-6.551-15.585c-0.964-2.024-1.996-4.011-3.073-5.972
				c-0.079,0.057-0.145,0.122-0.248,0.164c-6.029,2.447-12.534,3.427-18.986,2.414c-1.541-0.242-1.249-2.655,0.303-2.413
				c6.046,0.95,12.074,0.06,17.728-2.235c0.012-0.004,0.021-0.002,0.033-0.006c-3.32-5.792-7.062-11.344-10.991-16.74
				c-0.67-0.918-1.366-1.826-2.073-2.729c-0.139,0.334-0.422,0.603-0.907,0.642c-4.832,0.386-9.365,2.068-13.797,3.938
				C125.344,82.517,124.385,80.284,125.829,79.674z"/>
		</g>
		<path fill="#345194" d="M189.356,182.258c-6.206-6.653-11.507-13.739-18.079-19.907c5.679-8.999,7.904-25.883,6.458-27.648
			c-3.246-3.966-7.341,2.213-8.149,5.218c-1.462,5.441-0.675,16.821,0.273,21.131c-0.781-0.694-1.574-1.382-2.396-2.048
			c-1.804-1.463-3.605-2.933-5.408-4.403c1.679-3.187,5.598-9.793,3.416-20.542c-0.366-1.803-1.018-4.169-2.939-4.867
			c-2.668-0.969-2.865,2.021-2.937,3.913c-0.123,3.245,0.221,14.383,0.089,19.565c-3.607-2.942-7.22-5.885-10.845-8.806
			c2.035-6.671,4.469-14.768,1.481-21.545c-1.954-4.434-5.443-0.739-6.219,2.193c-1.389,5.249-0.362,11.404,1.507,16.764
			c-1.715-1.371-3.43-2.742-5.153-4.097c-0.307-0.241-0.621-0.478-0.931-0.718c1.282-3.19,2.855-6.129,2.98-9.688
			c0.123-3.503-1.405-6.694-3.658-9.297c-0.994-1.147-2.041-2.677-3.703-2.871c-2.332-0.272-1.354,2.222-0.916,3.743
			c0.933,3.236,1.698,6.586,2.27,9.89c0.316,1.826,0.669,3.526,1.134,5.26c0.12,0.449,0.192,1.07,0.265,1.708
			c-2.473-1.892-4.986-3.744-7.54-5.548c0.159-5.889,0.31-13.012-3.639-17.855c-2.589-3.176-4.604,0.621-4.579,3.187
			c0.042,3.979,1.713,8.104,3.932,11.705c-1.127-0.761-2.26-1.514-3.4-2.258c-1.935-6.625-4.236-14.861-10.405-18.814
			c-3.924-2.514-4.772,2.404-3.839,5.207c0.92,2.767,2.578,5.352,4.608,7.671c-0.541-0.316-1.079-0.639-1.622-0.95
			c-1.274-0.73-2.566-1.407-3.872-2.042c-0.875-5.843-1.957-12.93-6.714-17.028c-3.104-2.675-4.425,1.417-3.952,3.938
			c0.753,4.002,3.214,7.858,6.115,11.059c-2.04-0.842-4.105-1.616-6.185-2.35c-1.439-4.603-3.213-10.159-7.555-12.861
			c-2.849-1.773-3.403,1.704-2.702,3.684c1.018,2.872,3.175,5.466,5.639,7.59c-2.29-0.769-4.585-1.53-6.875-2.327
			c-1.325-1.726-2.854-3.441-4.217-4.903c-1.611-1.729-3.67-3.402-6.199-3.187c-3.335,0.286-3.988,2.643-2.119,5.244
			c0.854,1.188,1.995,1.975,3.28,2.539c-1.296,0.243-2.501,0.737-3.302,1.486c-2.193,2.049-0.184,4.032,2.196,4.487
			c2.65,0.507,5.38-0.492,7.95-0.994c1.904-0.373,3.917-0.186,5.825-0.36c1.52,0.512,3.038,1.021,4.549,1.541
			c-3.946-0.248-8.28,0.223-11.54,2.152c-1.808,1.07-3.612,4.093-0.288,4.559c5.332,0.748,10.509-2.758,14.68-5.436l0.047-0.258
			c4.252,1.521,8.443,3.204,12.501,5.356c-1.362-0.001-2.699,0.136-3.97,0.456c-2.317,0.584-5.261,3.301-1.785,4.881
			c4.464,2.03,9.697,1.052,14.386-0.226c4.22,2.641,8.369,5.422,12.424,8.319c-4.424-1.553-9.46-2.403-13.793-1.311
			c-2.485,0.626-5.642,3.54-1.915,5.233c5.98,2.719,13.249,0.408,19.054-1.282l0.077-0.151c1.882,1.394,3.747,2.806,5.581,4.247
			c0.887,0.696,1.758,1.412,2.639,2.117c-6.053-2.274-12.9-3.654-18.699-2.43c-3.32,0.7-7.431,4.381-2.32,6.8
			c8.172,3.867,17.817,1.221,25.549-0.712c2.518,2.063,5.029,4.132,7.543,6.198c-6.003-0.21-18.429-1.388-22.469-1.436
			c-1.889-0.021-6.32,0.425-5.257,3.467c0.59,1.686,4.008,3.114,5.652,3.506c3.666,0.873,17.148-0.377,25.961-2.361
			c1.793,1.453,3.593,2.899,5.416,4.317c0.675,0.525,1.332,1.061,1.98,1.602c-8.863-1.09-26.293-2.062-30.49-0.679
			c-2.135,0.702-5.444,2.396-4.915,5.116c0.548,2.817,4.862,2.653,7.075,3.107c5.099,1.049,21.243-1.694,24.153-2.63
			c2.252-0.724,4.435-1.964,6.61-2.795c1.439,1.3,2.823,2.634,4.166,3.994c-6.97,1.438-22.91,3.61-27.897,4.718
			c-2.268,0.505-7.446,2.287-5.319,5.629c1.18,1.851,5.674,2.601,7.752,2.606c4.399,0.015,18.852-4.75,28.854-9.384
			c4.136,4.495,8.044,9.188,12.35,13.804C188.372,185.556,190.662,183.658,189.356,182.258z"/>
	</g>
	<g>
		<g>
			<linearGradient id="SVGID_1_" gradientUnits="userSpaceOnUse" x1="183.1064" y1="257.1113" x2="273.6461" y2="143.1324">
				<stop  offset="0.0019" style="stop-color:#51489F"/>
				<stop  offset="0.224" style="stop-color:#696EB2"/>
				<stop  offset="0.4549" style="stop-color:#7F91C4"/>
				<stop  offset="0.6689" style="stop-color:#90ACD2"/>
				<stop  offset="0.8573" style="stop-color:#9ABDDB"/>
				<stop  offset="1" style="stop-color:#9EC4DE"/>
			</linearGradient>
			<path fill="url(#SVGID_1_)" d="M330.575,182.217c0,16.843-9.615,32.104-25.194,43.259c-1.293,0.919-2.616,1.824-3.995,2.688
				c-0.804,0.503-1.61,0.991-2.443,1.465c-0.258,0.173-0.517,0.316-0.79,0.475c-1.523,0.878-3.075,1.711-4.686,2.5
				c-1.206,0.604-2.443,1.18-3.692,1.726c-1.841,0.833-3.724,1.608-5.648,2.328c-2.962,1.135-6.037,2.143-9.213,3.004
				c-0.316,0.101-0.646,0.187-0.963,0.272c-3.521,0.948-7.157,1.74-10.894,2.344c-2.846,0.488-5.763,0.861-8.709,1.148
				c-1.912,0.173-3.838,0.316-5.778,0.388c-0.273,0.015-0.532,0.029-0.805,0.043c-1.709,0.087-3.435,0.115-5.174,0.115h-1.034
				c-48.102-0.388-86.935-27.881-86.935-61.754c0-34.092,39.393-61.728,87.969-61.728
				C291.182,120.489,330.575,148.125,330.575,182.217z"/>
			<linearGradient id="SVGID_2_" gradientUnits="userSpaceOnUse" x1="238.8813" y1="187.4473" x2="357.9152" y2="20.1564">
				<stop  offset="0.0019" style="stop-color:#51489F"/>
				<stop  offset="0.224" style="stop-color:#696EB2"/>
				<stop  offset="0.4549" style="stop-color:#7F91C4"/>
				<stop  offset="0.6689" style="stop-color:#90ACD2"/>
				<stop  offset="0.8573" style="stop-color:#9ABDDB"/>
				<stop  offset="1" style="stop-color:#9EC4DE"/>
			</linearGradient>
			<path fill="url(#SVGID_2_)" d="M300.608,182.221c0,11.106-6.341,21.171-16.613,28.524c-0.853,0.607-1.724,1.203-2.634,1.772
				c-0.531,0.332-1.061,0.653-1.61,0.966c-0.17,0.114-0.341,0.208-0.522,0.314c-1.003,0.576-2.026,1.127-3.088,1.647
				c-0.797,0.398-1.612,0.777-2.436,1.137c-1.214,0.549-2.454,1.063-3.724,1.536c-1.953,0.747-3.98,1.411-6.075,1.98
				c-0.208,0.066-0.428,0.122-0.636,0.18c-2.321,0.625-4.718,1.147-7.183,1.544c-1.876,0.323-3.799,0.569-5.743,0.76
				c-1.261,0.112-2.529,0.208-3.81,0.255c-0.18,0.009-0.351,0.02-0.53,0.028c-1.127,0.058-2.266,0.075-3.41,0.075h-0.683
				c-31.719-0.255-57.324-18.384-57.324-40.72c0-22.478,25.975-40.701,58.006-40.701
				C274.633,141.52,300.608,159.743,300.608,182.221z"/>
		</g>
		<g>
			<defs>
				<path id="SVGID_3_" d="M302.086,180.879c-2.635,11.163-6.463,21.868-16.935,29.465c-0.869,0.626-1.758,1.242-2.686,1.829
					c-0.541,0.343-1.081,0.677-1.641,1c-0.175,0.116-0.349,0.215-0.532,0.323c-1.024,0.596-2.067,1.163-3.148,1.701
					c-0.812,0.411-1.643,0.803-2.483,1.177c-1.236,0.566-2.502,1.095-3.797,1.585c-1.989,0.773-4.057,1.458-6.191,2.045
					c-0.212,0.069-0.435,0.127-0.648,0.187c-2.366,0.646-4.81,1.185-7.321,1.596c-1.913,0.332-3.874,0.587-5.854,0.783
					c-1.285,0.118-2.579,0.215-3.883,0.264c-0.184,0.011-0.357,0.02-0.54,0.03c-1.151,0.058-2.309,0.077-3.478,0.077h-0.697
					c-32.331-0.264-57.126-19.027-58.433-42.062c-2.908-51.257,31.611-88.133,64.263-88.133
					C280.74,92.746,314.565,128.018,302.086,180.879z"/>
			</defs>
			<clipPath id="SVGID_4_">
				<use xlink:href="#SVGID_3_"  overflow="visible"/>
			</clipPath>
		</g>
	</g>
	<text transform="matrix(1 0 0 1 207.7065 83.6592)" fill="#345194" font-family="'JosefinSans-SemiBold'" font-size="30.8484">OOPS!</text>
	<g>
		
			<linearGradient id="SVGID_5_" gradientUnits="userSpaceOnUse" x1="353.4102" y1="209.7754" x2="431.5439" y2="97.1709" gradientTransform="matrix(0.9962 -0.0868 0.0868 0.9962 -14.4869 87.0299)">
			<stop  offset="0.0019" style="stop-color:#51489F"/>
			<stop  offset="0.224" style="stop-color:#696EB2"/>
			<stop  offset="0.4549" style="stop-color:#7F91C4"/>
			<stop  offset="0.6689" style="stop-color:#90ACD2"/>
			<stop  offset="0.8573" style="stop-color:#9ABDDB"/>
			<stop  offset="1" style="stop-color:#9EC4DE"/>
		</linearGradient>
		<path fill="url(#SVGID_5_)" d="M423.154,212.332l17.773-55.672l-42.329-3.582l-66.942,52.287l-6.285,15.902l61.266,7.7
			l-4.296,13.56l-1.732,5.435l30.967,2.947l6.11-17.898l14.608,0.75l6.775-19.581l-10.332-1.195L423.154,212.332z M396.791,195.725
			l-4.264,12.818l-10.09-1.192l-16.446-1.948l37.74-30.557L396.791,195.725z"/>
		
			<linearGradient id="SVGID_6_" gradientUnits="userSpaceOnUse" x1="430.041" y1="109.6309" x2="584.9305" y2="-110.5234" gradientTransform="matrix(0.9962 -0.0868 0.0868 0.9962 -14.4869 87.0299)">
			<stop  offset="0.0019" style="stop-color:#51489F"/>
			<stop  offset="0.224" style="stop-color:#696EB2"/>
			<stop  offset="0.4549" style="stop-color:#7F91C4"/>
			<stop  offset="0.6689" style="stop-color:#90ACD2"/>
			<stop  offset="0.8573" style="stop-color:#9ABDDB"/>
			<stop  offset="1" style="stop-color:#9EC4DE"/>
		</linearGradient>
		<path fill="url(#SVGID_6_)" d="M325.371,221.268l1.242,14.253l55.728,7.007l4.296-13.56L325.371,221.268z M365.991,205.402
			l16.446,1.948l14.354-11.626l6.94-20.879L365.991,205.402z M432.294,233.761l-14.608-0.75l-6.11,17.898l-30.967-2.947
			l1.242,14.252l30.967,2.948l6.11-17.899l14.608,0.751l6.775-19.581l-1.242-14.253L432.294,233.761z M423.154,212.332l5.583,0.652
			l13.433-42.072l-1.242-14.252L423.154,212.332z"/>
	</g>
	<g>
		<linearGradient id="SVGID_7_" gradientUnits="userSpaceOnUse" x1="70.2739" y1="249.376" x2="127.2634" y2="159.7556">
			<stop  offset="0.0019" style="stop-color:#51489F"/>
			<stop  offset="0.224" style="stop-color:#696EB2"/>
			<stop  offset="0.4549" style="stop-color:#7F91C4"/>
			<stop  offset="0.6689" style="stop-color:#90ACD2"/>
			<stop  offset="0.8573" style="stop-color:#9ABDDB"/>
			<stop  offset="1" style="stop-color:#9EC4DE"/>
		</linearGradient>
		<path fill="url(#SVGID_7_)" d="M132.884,204.685l13.892-56.766l-42.475-0.655l-63.179,56.78l-5.173,16.297l61.651,3.456
			l-3.351,13.824l-1.353,5.542l31.095,0.806l4.862-18.277l14.625-0.259l5.41-20.001l-10.391-0.481L132.884,204.685z
			 M105.437,189.935l-3.369,13.08l-10.148-0.493l-16.54-0.81l35.544-33.087L105.437,189.935z"/>
		<linearGradient id="SVGID_8_" gradientUnits="userSpaceOnUse" x1="235.1875" y1="24.7603" x2="390.0697" y2="-195.3836">
			<stop  offset="0.0019" style="stop-color:#51489F"/>
			<stop  offset="0.224" style="stop-color:#696EB2"/>
			<stop  offset="0.4549" style="stop-color:#7F91C4"/>
			<stop  offset="0.6689" style="stop-color:#90ACD2"/>
			<stop  offset="0.8573" style="stop-color:#9ABDDB"/>
			<stop  offset="1" style="stop-color:#9EC4DE"/>
		</linearGradient>
		<path fill="url(#SVGID_8_)" d="M35.948,220.341l2.223,14.133l56.078,3.147l3.351-13.824L35.948,220.341z M75.379,201.712
			l16.54,0.81l13.518-12.587l5.486-21.31L75.379,201.712z M143.479,225.433l-14.625,0.259l-4.862,18.277l-31.095-0.806l2.222,14.132
			l31.096,0.807l4.862-18.278l14.625-0.258l5.41-20.002l-2.222-14.132L143.479,225.433z M132.884,204.685l5.614,0.266l10.499-42.898
			l-2.222-14.133L132.884,204.685z"/>
	</g>
</g>
</svg>
