<?xml version="1.0" encoding="utf-8"?>
<!-- Generator: Adobe Illustrator 16.0.2, SVG Export Plug-In . SVG Version: 6.00 Build 0)  -->
<!DOCTYPE svg PUBLIC "-//W3C//DTD SVG 1.1//EN" "http://www.w3.org/Graphics/SVG/1.1/DTD/svg11.dtd">
<svg version="1.1" id="Layer_1" xmlns="http://www.w3.org/2000/svg" xmlns:xlink="http://www.w3.org/1999/xlink" x="0px" y="0px"
	 width="32px" height="32px" viewBox="0 0 32 32" enable-background="new 0 0 32 32" xml:space="preserve">
<path fill="#002A5A" d="M12.796,15.977L1.665,5.01C0.787,4.147,0.777,2.734,1.642,1.854C2.507,0.978,3.92,0.966,4.798,1.831
	l11.134,10.965l10.964-11.13c0.864-0.878,2.277-0.888,3.155-0.023c0.878,0.868,0.89,2.279,0.025,3.157L19.111,15.93l11.131,10.966
	c0.876,0.867,0.889,2.279,0.023,3.156c-0.865,0.879-2.281,0.889-3.16,0.022L15.976,19.109L5.01,30.243
	c-0.863,0.878-2.278,0.889-3.157,0.022c-0.877-0.865-0.888-2.279-0.022-3.156L12.796,15.977z"/>
</svg>
