<?xml version="1.0"?>
<svg xmlns="http://www.w3.org/2000/svg" xmlns:xlink="http://www.w3.org/1999/xlink" version="1.1" id="Capa_1" x="0px" y="0px" viewBox="0 0 511.995 511.995" style="enable-background:new 0 0 511.995 511.995;" xml:space="preserve" width="512px" height="512px"><g><g>
	<g>
		<path d="M489.075,452.499H17.467c-9.045,0-16.375,7.331-16.375,16.375s7.331,16.375,16.375,16.375h471.608    c9.045,0,16.375-7.331,16.375-16.375S498.119,452.499,489.075,452.499z" data-original="#000000" class="active-path" data-old_color="#000000" fill="#FFFFFF"/>
	</g>
</g><g>
	<g>
		<rect x="278.38" y="201.412" width="32.751" height="267.463" data-original="#000000" class="active-path" data-old_color="#000000" fill="#FFFFFF"/>
	</g>
</g><g>
	<g>
		<rect x="361.348" y="201.412" width="32.751" height="267.463" data-original="#000000" class="active-path" data-old_color="#000000" fill="#FFFFFF"/>
	</g>
</g><g>
	<g>
		<rect x="444.861" y="201.412" width="32.751" height="267.463" data-original="#000000" class="active-path" data-old_color="#000000" fill="#FFFFFF"/>
	</g>
</g><g>
	<g>
		<rect x="195.411" y="201.412" width="32.751" height="267.463" data-original="#000000" class="active-path" data-old_color="#000000" fill="#FFFFFF"/>
	</g>
</g><g>
	<g>
		<rect x="112.443" y="201.412" width="32.751" height="267.463" data-original="#000000" class="active-path" data-old_color="#000000" fill="#FFFFFF"/>
	</g>
</g><g>
	<g>
		<rect x="34.388" y="201.412" width="32.751" height="267.463" data-original="#000000" class="active-path" data-old_color="#000000" fill="#FFFFFF"/>
	</g>
</g><g>
	<g>
		<path d="M502.098,131.244L262.474,28.08c-4.132-1.779-8.815-1.779-12.953,0L9.896,131.244C3.892,133.826,0,139.742,0,146.282    v55.13c0,9.045,7.331,16.375,16.375,16.375h479.25c9.045,0,16.375-7.331,16.37-16.375v-55.13    C511.995,139.742,508.108,133.831,502.098,131.244z M479.25,185.036H32.751v-27.98L256,60.945l223.25,96.117V185.036z" data-original="#000000" class="active-path" data-old_color="#000000" fill="#FFFFFF"/>
	</g>
</g><g>
	<g>
		<path d="M256,84.056c-24.377,0-44.213,19.836-44.213,44.213c0,24.377,19.836,44.213,44.213,44.213s44.213-19.836,44.213-44.213    C300.213,103.892,280.377,84.056,256,84.056z M256,139.732c-6.321,0-11.463-5.142-11.463-11.463    c0-6.321,5.142-11.463,11.463-11.463s11.463,5.142,11.463,11.463C267.463,134.59,262.321,139.732,256,139.732z" data-original="#000000" class="active-path" data-old_color="#000000" fill="#FFFFFF"/>
	</g>
</g></g> </svg>
