<?xml version="1.0" encoding="utf-8"?>
<!-- Generator: Adobe Illustrator 16.0.2, SVG Export Plug-In . SVG Version: 6.00 Build 0)  -->
<!DOCTYPE svg PUBLIC "-//W3C//DTD SVG 1.1//EN" "http://www.w3.org/Graphics/SVG/1.1/DTD/svg11.dtd">
<svg version="1.1" id="Capa_1" xmlns="http://www.w3.org/2000/svg" xmlns:xlink="http://www.w3.org/1999/xlink" x="0px" y="0px"
	 width="512px" height="512px" viewBox="0 0 512 512" enable-background="new 0 0 512 512" xml:space="preserve">
<g>
	<g>
		<g>
			<path fill="#F08F46" d="M489.08,452.504H17.467c-9.045,0-16.375,7.33-16.375,16.375c0,9.044,7.331,16.375,16.375,16.375H489.08
				c9.045,0,16.375-7.331,16.375-16.375C505.455,459.834,498.124,452.504,489.08,452.504z"/>
		</g>
	</g>
	<g>
		<g>
			<rect x="278.383" y="201.414" fill="#F08F46" width="32.751" height="267.466"/>
		</g>
	</g>
	<g>
		<g>
			<rect x="361.352" y="201.414" fill="#F08F46" width="32.752" height="267.466"/>
		</g>
	</g>
	<g>
		<g>
			<rect x="444.865" y="201.414" fill="#F08F46" width="32.751" height="267.466"/>
		</g>
	</g>
	<g>
		<g>
			<rect x="195.413" y="201.414" fill="#F08F46" width="32.751" height="267.466"/>
		</g>
	</g>
	<g>
		<g>
			<rect x="112.444" y="201.414" fill="#F08F46" width="32.751" height="267.466"/>
		</g>
	</g>
	<g>
		<g>
			<rect x="34.388" y="201.414" fill="#F08F46" width="32.751" height="267.466"/>
		</g>
	</g>
	<g>
		<g>
			<path fill="#F08F46" d="M502.103,131.245L262.477,28.08c-4.132-1.779-8.815-1.779-12.953,0L9.896,131.245
				C3.892,133.827,0,139.743,0,146.283v55.131c0,9.045,7.331,16.375,16.375,16.375H495.63c9.045,0,16.375-7.331,16.37-16.375
				v-55.131C512,139.743,508.113,133.832,502.103,131.245z M479.255,185.038H32.751v-27.98l223.251-96.112l223.252,96.118V185.038z"
				/>
		</g>
	</g>
	<g>
		<g>
			<path fill="#F08F46" d="M256.002,84.057c-24.377,0-44.213,19.836-44.213,44.214c0,24.377,19.836,44.213,44.213,44.213
				s44.213-19.836,44.213-44.213C300.216,103.893,280.38,84.057,256.002,84.057z M256.002,139.733
				c-6.321,0-11.463-5.142-11.463-11.463c0-6.321,5.142-11.463,11.463-11.463c6.322,0,11.463,5.142,11.463,11.463
				C267.466,134.591,262.324,139.733,256.002,139.733z"/>
		</g>
	</g>
</g>
</svg>
