<?xml version="1.0" encoding="utf-8"?>
<!-- Generator: Adobe Illustrator 16.0.2, SVG Export Plug-In . SVG Version: 6.00 Build 0)  -->
<!DOCTYPE svg PUBLIC "-//W3C//DTD SVG 1.1//EN" "http://www.w3.org/Graphics/SVG/1.1/DTD/svg11.dtd">
<svg version="1.1" id="Layer_1" xmlns="http://www.w3.org/2000/svg" xmlns:xlink="http://www.w3.org/1999/xlink" x="0px" y="0px"
	 width="100px" height="100px" viewBox="0 0 100 100" enable-background="new 0 0 100 100" xml:space="preserve">
<g>
	<g>
		<path fill="#FFFFFF" d="M30.153,41.024c-1.57-1.57-4.121-1.57-5.69,0c-1.57,1.569-1.57,4.12,0,5.689l18.541,18.541
			c0.785,0.784,1.766,1.177,2.845,1.177c0.098,0,0.098,0,0.196,0c1.08-0.098,2.158-0.588,2.943-1.471L95.39,9.337
			c1.374-1.667,1.178-4.218-0.49-5.689c-1.668-1.374-4.218-1.177-5.689,0.49L45.554,56.426L30.153,41.024L30.153,41.024z"/>
		<path fill="#FFFFFF" d="M76.313,7.639c-19.8-12.396-45.194-9.469-61.721,7.059c-19.455,19.455-19.455,51.218,0,70.672
			c9.727,9.727,22.553,14.635,35.293,14.635S75.45,95.097,85.18,85.37c16.612-16.614,19.453-42.093,6.972-61.892
			c-1.032-1.636-3.185-2.152-4.82-1.119s-2.151,3.185-1.119,4.821c10.761,17.044,8.265,38.909-6.026,53.197
			c-16.699,16.701-43.988,16.701-60.688,0c-16.7-16.697-16.7-43.986,0-60.686c14.29-14.204,36.069-16.7,53.112-6.112
			c1.636,1.034,3.789,0.517,4.82-1.119C78.465,10.825,77.947,8.672,76.313,7.639L76.313,7.639z"/>
	</g>
</g>
</svg>
