<?xml version="1.0" encoding="utf-8"?>
<!-- Generator: Adobe Illustrator 16.0.2, SVG Export Plug-In . SVG Version: 6.00 Build 0)  -->
<!DOCTYPE svg PUBLIC "-//W3C//DTD SVG 1.1//EN" "http://www.w3.org/Graphics/SVG/1.1/DTD/svg11.dtd">
<svg version="1.1" id="Layer_1" xmlns="http://www.w3.org/2000/svg" xmlns:xlink="http://www.w3.org/1999/xlink" x="0px" y="0px"
	 width="70px" height="70px" viewBox="0 0 70 70" enable-background="new 0 0 70 70" xml:space="preserve">
<g>
	<path fill="#FFFFFF" d="M64.467,65.6c0,0.627-0.508,1.135-1.134,1.135H52v-3.877c-0.012-3.572-2.4-6.702-5.846-7.653L39.533,53.4
		v-1.715c2.123-1.479,3.392-3.899,3.4-6.485v-2.146c0.289-0.135,0.471-0.229,0.506-0.24c0.385-0.192,0.627-0.586,0.627-1.017V35
		l6.072-2.336c0.438-0.168,0.729-0.589,0.729-1.059s-0.29-0.891-0.729-1.059L35.406,24.88c-0.262-0.1-0.551-0.1-0.813,0
		L19.86,30.547c-0.437,0.168-0.725,0.586-0.727,1.053v5.198l-3.068,3.067l1.603,1.603l1.466-1.465V41.8H21.4v-1.797l1.465,1.465
		l1.603-1.603L21.4,36.798V33.25L25.934,35v6.8c-0.003,0.433,0.24,0.827,0.627,1.021c0.034,0.019,0.217,0.107,0.506,0.24v2.142
		c-0.02,2.594,1.255,5.026,3.4,6.487V53.4l-6.626,1.803c-3.442,0.953-5.83,4.082-5.841,7.654v3.875H6.667
		c-0.626,0-1.134-0.508-1.134-1.133V21.4h31.732v-2.267H5.533v-5.667c0-0.626,0.508-1.134,1.134-1.134h30.601v-2.267H6.667
		c-1.878,0-3.4,1.522-3.4,3.4V65.6c0,1.879,1.522,3.4,3.4,3.4h56.666c1.878,0,3.399-1.521,3.399-3.4V23.667h-2.268L64.467,65.6
		L64.467,65.6z M32.733,54.268v-1.474c1.477,0.454,3.057,0.454,4.533,0v1.474c0.004,0.324,0.147,0.631,0.396,0.842L35,57.327
		l-2.662-2.218C32.586,54.898,32.73,54.592,32.733,54.268z M35,27.146L46.576,31.6L35,36.053L23.424,31.6L35,27.146z M34.594,38.325
		c0.262,0.1,0.551,0.1,0.813,0l6.394-2.459v5.213c-2.135,1.026-4.439,1.655-6.8,1.854c-2.36-0.201-4.665-0.83-6.8-1.855v-5.213
		L34.594,38.325z M29.333,45.2v-1.218c1.81,0.716,3.724,1.127,5.667,1.218c1.943-0.091,3.857-0.502,5.667-1.218V45.2
		c-0.003,2.024-1.086,3.896-2.842,4.903c-1.755,1.011-3.916,1.006-5.667-0.011c-0.428-0.241-0.82-0.544-1.166-0.895
		C29.925,48.145,29.326,46.702,29.333,45.2z M20.267,62.857c0.009-2.553,1.715-4.787,4.174-5.469l5.346-1.453l4.488,3.737
		c0.421,0.353,1.03,0.353,1.452,0l4.487-3.737l5.343,1.45c2.461,0.683,4.168,2.916,4.178,5.472v3.875h-3.399V62.2h-2.269v4.532
		H25.934V62.2h-2.267v4.532h-3.4V62.857z"/>
	<path fill="#FFFFFF" d="M10.066,14.6h2.267v2.267h-2.267V14.6z"/>
	<path fill="#FFFFFF" d="M14.6,14.6h2.267v2.267H14.6V14.6z"/>
	<path fill="#FFFFFF" d="M19.134,14.6H21.4v2.267h-2.267L19.134,14.6L19.134,14.6z"/>
	<path fill="#FFFFFF" d="M65.6,1H42.934c-1.877,0-3.398,1.522-3.398,3.4V18c0,1.878,1.521,3.4,3.398,3.4h3.399v4.533
		c0,0.481,0.304,0.91,0.759,1.069c0.12,0.042,0.247,0.063,0.375,0.063c0.344,0,0.67-0.156,0.885-0.425l4.192-5.241H65.6
		c1.879,0,3.4-1.522,3.4-3.4V4.4C69,2.522,67.479,1,65.6,1z M66.732,18c0,0.626-0.508,1.134-1.133,1.134H52
		c-0.344,0-0.67,0.155-0.885,0.425L48.6,22.702v-2.436c0-0.626-0.507-1.133-1.133-1.133h-4.533c-0.625,0-1.134-0.508-1.134-1.134
		V4.4c0-0.626,0.509-1.134,1.134-1.134H65.6c0.627,0,1.135,0.508,1.135,1.134V18H66.732z"/>
	<path fill="#FFFFFF" d="M46.333,5.533H62.2V7.8H46.333V5.533z"/>
	<path fill="#FFFFFF" d="M46.333,10.066H62.2v2.267H46.333V10.066z"/>
	<path fill="#FFFFFF" d="M46.333,14.6H62.2v2.267H46.333V14.6z"/>
</g>
</svg>
