<?xml version="1.0" encoding="utf-8"?>
<!-- Generator: Adobe Illustrator 16.0.2, SVG Export Plug-In . SVG Version: 6.00 Build 0)  -->
<!DOCTYPE svg PUBLIC "-//W3C//DTD SVG 1.1//EN" "http://www.w3.org/Graphics/SVG/1.1/DTD/svg11.dtd">
<svg version="1.1" id="Layer_1" xmlns="http://www.w3.org/2000/svg" xmlns:xlink="http://www.w3.org/1999/xlink" x="0px" y="0px"
	 width="391px" height="386px" viewBox="0 0 391 386" enable-background="new 0 0 391 386" xml:space="preserve">
<desc>Created with Sketch.</desc>
<g>
	<path id="Fill-5" fill="#989898" d="M63.071,87.784c-30.868,36.788-26.001,91.873,10.848,122.793
		c36.85,30.921,91.94,26.148,122.811-10.641c30.87-36.792,26.005-91.872-10.845-122.794C149.033,46.222,93.941,50.996,63.071,87.784
		 M207.525,208.994c-35.854,42.727-99.842,48.274-142.647,12.358c-42.799-35.915-48.453-99.895-12.597-142.624
		c35.853-42.729,99.843-48.272,142.643-12.359C237.73,102.285,243.378,166.265,207.525,208.994"/>
	<path id="Fill-7" fill="#989898" d="M180.332,83.763l-9.043,10.774c-27.242-22.858-67.97-19.33-90.79,7.866l-10.792-9.056
		C97.512,60.209,147.136,55.908,180.332,83.763"/>
	<path id="Fill-9" fill="#989898" d="M206.463,161.549l-13.725-3.157c2.861-12.543,1.942-25.534-2.666-37.556l13.144-5.018
		C208.83,130.461,209.953,146.279,206.463,161.549"/>
	<path id="Fill-11" fill="#989898" d="M41.839,69.967C1.163,118.442,7.575,191.029,56.135,231.777
		c48.556,40.744,121.156,34.456,161.831-14.021c40.674-48.475,34.265-121.063-14.294-161.806
		C155.113,15.201,82.516,21.492,41.839,69.967 M228.758,226.813c-45.66,54.415-127.155,61.479-181.664,15.739
		c-54.513-45.739-61.71-127.224-16.049-181.641C76.704,6.496,158.204-0.564,212.714,45.177
		C267.222,90.912,274.422,172.399,228.758,226.813"/>
	<polygon id="Fill-13" fill="#989898" points="262.779,224.897 232.779,260.649 208.363,240.158 217.403,229.384 231.029,240.817 
		242.944,226.617 229.318,215.185 238.36,204.41 	"/>
	<g id="Group-17" transform="translate(105.000000, 199.430471)">
		<g id="Clip-16">
		</g>
		<defs>
			<filter id="Adobe_OpacityMaskFilter" filterUnits="userSpaceOnUse" x="113.112" y="11.797" width="171.051" height="157.925">
				<feColorMatrix  type="matrix" values="1 0 0 0 0  0 1 0 0 0  0 0 1 0 0  0 0 0 1 0"/>
			</filter>
		</defs>
		<mask maskUnits="userSpaceOnUse" x="113.112" y="11.797" width="171.051" height="157.925" id="mask-2">
			<g filter="url(#Adobe_OpacityMaskFilter)">
				<polygon id="path-1" fill="#FFFFFF" points="241.148,180.065 294.509,116.473 158.668,2.487 105.31,66.079 				"/>
			</g>
		</mask>
		<path id="Fill-15" mask="url(#mask-2)" fill="#989898" d="M132.25,55.892l97.867,96.51c2.268,2.23,5.252,3.378,8.418,3.23
			c3.168-0.144,6.035-1.56,8.073-3.989l20.86-24.857c2.033-2.423,2.93-5.496,2.523-8.641c-0.406-3.143-2.051-5.888-4.642-7.732
			l-112.04-79.619L132.25,55.892z M278.257,135.84L257.4,160.698c-4.526,5.395-11.154,8.672-18.19,8.996
			c-7.042,0.326-13.948-2.327-18.973-7.28L113.112,56.776l37.743-44.979l122.641,87.15c5.749,4.082,9.561,10.434,10.462,17.42
			C284.855,123.353,282.78,130.45,278.257,135.84L278.257,135.84z"/>
	</g>
</g>
</svg>
