<?xml version="1.0" encoding="utf-8"?>
<!-- Generator: Adobe Illustrator 16.0.2, SVG Export Plug-In . SVG Version: 6.00 Build 0)  -->
<!DOCTYPE svg PUBLIC "-//W3C//DTD SVG 1.1//EN" "http://www.w3.org/Graphics/SVG/1.1/DTD/svg11.dtd">
<svg version="1.1" id="Layer_1" xmlns="http://www.w3.org/2000/svg" xmlns:xlink="http://www.w3.org/1999/xlink" x="0px" y="0px"
	 width="250px" height="250px" viewBox="0 0 250 250" enable-background="new 0 0 250 250" xml:space="preserve">
<g>
	<path fill-rule="evenodd" clip-rule="evenodd" fill="#88989D" d="M4.568,109.717c1.841-0.637,2.622-3.324,4.994-2.787
		c1.595,0.359,3.32,0.977,3.813,2.805c0.494,1.834,0.287,3.635-1.35,4.973c-1.597,1.307-3.408,1.404-5.099,0.482
		c-0.952-0.52-1.583-1.629-2.357-2.473C4.568,111.717,4.568,110.717,4.568,109.717z"/>
	<path fill-rule="evenodd" clip-rule="evenodd" fill="#FEFEFE" d="M8.831,113.613c-1.003-0.084-2.092-0.809-2.098-2.363
		c-0.006-1.525,0.964-2.482,2.533-2.35c1.558,0.133,2.21,1.244,2.233,2.742C11.521,113.109,10.715,113.701,8.831,113.613z"/>
	<g>
		<path fill-rule="evenodd" clip-rule="evenodd" fill="#85959A" d="M173.684,133.697c18.355,2.291,31.539,15.826,32.163,33.021
			c0.688,18.977-10.474,33.059-29.453,36.859c-1.949,0.391-2.716,0.986-3.293,2.826c-1.669,5.324-5.544,7.465-11.051,7.361
			c-7.989-0.148-15.989,0.133-23.974-0.117c-3.463-0.107-5.92,1.023-8.381,3.346c-4.447,4.197-8.808,8.553-14.127,11.723
			c-1.666,0-3.334,0-5,0c-6.624-4.666-7.415-7.053-4.724-14.994c-3.753,0-7.389,0.096-11.018-0.023
			c-5.034-0.166-8.568-3.027-9.28-8.006c-0.376-2.635-1.192-3.67-3.918-3.908c-3.554-0.313-6.092-2.381-7.087-5.998
			c-0.192-1.533-1.7-3.51,1.33-3.967c1.425,1.195,2.006,3.051,3.354,4.309c0.868,0.809,1.816,1.568,3.089,1.195
			c1.374-0.402,1.465-1.676,1.598-2.824c0.19-1.654,0.114-3.32,0.114-4.982c0.003-25.59,0.001-51.18,0.003-76.77
			c0-1.994-0.056-3.99,0.076-5.98c0.456-6.91,3.776-10.332,10.726-10.506c10.298-0.254,20.604-0.045,30.905-0.092
			c2.316-0.012,4.665,0.232,6.884-0.66c2.503-0.604,0.73-4.99,4.177-4.76c1.083,3.18,2.264,6.201,6.496,6.121
			c0.746-0.014,1.52,0.641,1.334,1.713c-1.842,2.033-4.311,1.5-6.574,1.512c-12.498,0.064-24.996,0.02-37.494,0.037
			c-1.991,0.002-4.008-0.184-5.919,0.58c-4.268,1.107-5.674,4.066-5.672,8.234c0.015,30.998-0.03,61.996,0.049,92.994
			c0.015,5.934,2.274,7.721,8.181,8.412c7.726,0.904,14.04-1.301,19.253-7.035c2.468-2.715,5.401-4.943,8.203-7.309
			c3.102-2.621,6.461-3.779,10.563-3.533c5.405,0.322,6.157-1.104,3.701-6.121c-11.503-23.502,0.35-48.379,25.925-53.387
			c4.975-0.975,5.016-4.371,6.606-7.334c1.937-0.193,1.448,1.279,1.604,2.322C173.336,129.861,172.393,131.902,173.684,133.697z"/>
		<path fill-rule="evenodd" clip-rule="evenodd" fill="#88989D" d="M248.568,99.717c-1.482,1.803-2.895,3.742-5.72,2.898
			c-1.733-0.52-2.948-1.605-3.187-3.426c-0.23-1.762,0.451-3.291,1.902-4.342c3.064-2.221,4.781,0.816,7.004,1.869
			C248.568,97.717,248.568,98.717,248.568,99.717z"/>
		<path fill-rule="evenodd" clip-rule="evenodd" fill="#88989D" d="M132.568,21.717c0.369,0.535,0.743,1.068,1.109,1.607
			c1.486,2.188,1.465,4.312-0.48,6.18c-1.682,1.614-3.559,1.626-5.242,0.011c-1.942-1.863-1.954-3.994-0.484-6.183
			c0.363-0.54,0.731-1.077,1.098-1.615C129.902,21.717,131.234,21.717,132.568,21.717z"/>
		<path fill-rule="evenodd" clip-rule="evenodd" fill="#88989D" d="M248.568,163.717c-1.482,0.039-2.648,0.363-3.867,1.559
			c-1.648,1.613-1.357-1.395-2.732-1.762c-1.679-0.451,0.568-0.975,0.608-0.957c1.239,0.541,0.53-3.229,2.091-1.092
			c1.17,1.6,2.548,1.045,3.9,1.252C248.568,163.051,248.568,163.385,248.568,163.717z"/>
		<path fill-rule="evenodd" clip-rule="evenodd" fill="#89989D" d="M136.467,90.719c-1.916,1.609,0.119,4.396-1.789,6.008
			c-0.246-0.227-0.573-0.422-0.693-0.709c-2.84-6.715-2.836-6.721-10.196-6.724c-10.826-0.005-21.652-0.009-32.479,0
			c-12.718,0.011-14.156,1.416-14.163,13.927c-0.013,26.814,0.021,53.631-0.038,80.447c-0.006,2.75,0.653,5.73-1.641,8.053
			c-1.348,1.119-0.74,2.684-0.925,4.066c-1.477-1.723-0.947-3.813-0.949-5.752c-0.035-30.639-0.037-61.275-0.017-91.914
			c0.006-8.926,3.491-12.393,12.365-12.4c15.319-0.013,30.638,0.061,45.957-0.06c2.878-0.023,4.967,0.771,7.011,2.841
			c8.541,8.648,16.991,17.414,25.986,25.572c5.995,5.436,10.268,11.096,8.788,19.623c-2.6-2.172,0.248-5.725-2.021-7.98
			c-5.434,1.051-10.924,0.783-16.345,0.221c-6.265-0.648-9.692-4.586-10.192-10.906c-0.195-2.48-0.068-4.975-0.111-7.461
			c-0.103-5.861-0.438-6.264-6.204-6.289c-12.772-0.055-25.546,0.027-38.318-0.053c-2.407-0.016-5.058,0.518-6.932-1.766
			c1.614-1.254,3.503-0.723,5.271-0.729c13.549-0.043,27.099,0.008,40.648-0.063c1.683-0.008,3.709,0.842,4.955-1.195
			C140.952,96.197,139.187,92.896,136.467,90.719z"/>
		<path fill-rule="evenodd" clip-rule="evenodd" fill="#88989D" d="M45.281,44.817c1.181,2.686,2.386,3.829,3.823,4.715
			c-1.095,1.246-2.189,2.492-3.284,3.739c-1.259-1.111-3.359-2.096-3.551-3.367C42.058,48.5,45.036,48.125,45.281,44.817z"/>
		<path fill-rule="evenodd" clip-rule="evenodd" fill="#88989D" d="M200.352,55.454c2.036-1.311,4.051-3.353,6.293-0.487
			c1.461,1.869-0.951,2.01-1.471,2.04c-0.788,0.047-0.239,3.727-1.766,0.706C202.732,56.375,200.756,57.04,200.352,55.454z"/>
		<path fill-rule="evenodd" clip-rule="evenodd" fill="#88989D" d="M16.973,180.613c2.267-0.041,3.197-4.561,6.179-0.871
			c0.671,0.83,1.759,1.551,0.156,1.787c-1.448,0.215-1.892,2.951-2.598,1.736C19.787,181.678,18.083,182.25,16.973,180.613z"/>
		<path fill-rule="evenodd" clip-rule="evenodd" fill="#EEEEEE" d="M93.56,99.463c15.429,0.041,30.858,0.084,46.287,0.119
			c6.556,0.014,6.555,0.004,6.556,6.795c0,2.654-0.039,5.311,0.018,7.965c0.14,6.492,3.637,9.902,10.142,10.404
			c5.031,0.387,10.194-1.254,15.101,0.971c0.851,5.719-1.402,7.621-7.344,8.854c-25.112,5.215-36.141,31.713-22.807,53.445
			c0.737,1.201,2.365,2.258,0.504,3.73c-1.585,1.256-2.576,3.666-5.382,2.588c-4.399-1.688-8.054-0.385-11.306,2.873
			c-2.229,2.23-5.062,3.92-7.034,6.334c-6.093,7.453-13.925,9.32-23.038,8.203c-4.83-0.592-7.785-3.119-7.794-7.93
			c-0.061-32.143-0.019-64.287-0.044-96.432C87.414,103.078,89.498,100.541,93.56,99.463z"/>
		<path fill-rule="evenodd" clip-rule="evenodd" fill="#EEEEEE" d="M75.468,191.721c0.053-30.652,0.107-61.307,0.157-91.961
			c0.016-9.832,2.16-11.963,12.084-11.966c13.496-0.003,26.99-0.001,40.486,0c6.369,0,6.367,0.002,6.416,6.435
			c0.006,0.832,0.043,1.664,0.065,2.498c-2.632,1.594-5.524,0.715-8.28,0.75c-9.994,0.127-19.99,0.02-29.985,0.066
			c-8.108,0.037-11.009,2.969-11.019,11.213c-0.031,27.986,0.038,55.973-0.111,83.959c-0.013,2.387,2.012,6.348-2.131,6.988
			c-4.334,0.67-6.484-2.588-7.477-6.498C75.552,192.723,75.534,192.217,75.468,191.721z"/>
		<path fill-rule="evenodd" clip-rule="evenodd" fill="#FEFEFE" d="M203.82,168.721c0.016,18.816-14.309,33.102-33.156,33.061
			c-17.97-0.039-32.76-14.703-32.902-32.623c-0.145-18.244,14.953-33.449,33.202-33.436
			C189.258,135.734,203.805,150.346,203.82,168.721z"/>
		<path fill-rule="evenodd" clip-rule="evenodd" fill="#FEFEFE" d="M139.633,202.961c0.242,1.631-0.857,3.25-2.406,4.629
			c-6.451,5.748-12.848,11.561-19.412,17.178c-3.332,2.852-7.33,2.557-9.709-0.555c-2.443-3.197-2.455-6.578,0.61-9.379
			c6.625-6.049,13.345-11.994,20.128-17.865c2.066-1.789,4.616-1.723,7.043-0.588C138.387,197.551,139.564,199.617,139.633,202.961z
			"/>
		<path fill-rule="evenodd" clip-rule="evenodd" fill="#EEEEEE" d="M136.103,211.699c5.06-4.391,6.833-8.566,4.573-13.998
			c-0.881-2.117,1.514-3.07,2.756-4.271c1.46-1.414,2.35,0.08,3.294,0.906c6.295,5.506,13.356,9.283,21.925,9.414
			c3.041,0.047,2.77,1.545,1.894,3.496c-1.384,3.082-3.929,4.42-7.17,4.438C154.73,211.73,146.088,211.699,136.103,211.699z"/>
		<path fill-rule="evenodd" clip-rule="evenodd" fill="#E4E5E5" d="M136.467,90.719c3.992,0.678,5.586,4.184,7.968,6.76
			c-0.165,0.014-0.329,0.037-0.493,0.041C136.77,97.705,136.77,97.705,136.467,90.719z"/>
		<path fill-rule="evenodd" clip-rule="evenodd" fill="#FDFDFD" d="M243.688,100.666c-1.445,0.008-2.107-0.748-2.046-2.146
			c0.067-1.502,0.802-2.592,2.354-2.629c1.537-0.037,2.496,0.932,2.394,2.488C246.287,99.932,245.18,100.6,243.688,100.666z"/>
		<path fill-rule="evenodd" clip-rule="evenodd" fill="#FBFBFB" d="M133.42,26.398c-0.39,1.766-1.584,2.443-3.275,2.256
			c-1.504-0.167-2.523-1.044-2.359-2.62c0.191-1.833,1.537-2.444,3.221-2.267C132.515,23.927,133.376,24.806,133.42,26.398z"/>
		<path fill-rule="evenodd" clip-rule="evenodd" fill="#EEEEEE" d="M167.52,122.613c-3.036,0-7.313,0.186-11.566-0.049
			c-4.571-0.252-7.301-3.178-7.451-7.646c-0.112-3.314-0.039-6.637-0.031-9.955c0.002-0.807,0.072-1.615,0.098-2.156
			C154.948,109.475,161.387,116.203,167.52,122.613z"/>
		<path fill-rule="evenodd" clip-rule="evenodd" fill="#8E9DA1" d="M141.136,132.213c-13.927,0-27.854,0-41.782,0
			c0.005-0.563,0.011-1.123,0.016-1.686c13.927,0.064,27.855-0.125,41.781,0.137C141.145,131.18,141.141,131.697,141.136,132.213z"
			/>
		<path fill-rule="evenodd" clip-rule="evenodd" fill="#8C9BA0" d="M99.354,142.254c13.242,0,26.484,0,39.725,0
			c0.011,0.299,0.021,0.596,0.03,0.893c-13.271,0-26.541,0-39.813,0C99.316,142.85,99.335,142.553,99.354,142.254z"/>
		<path fill-rule="evenodd" clip-rule="evenodd" fill="#8E9DA1" d="M129.769,155.111c-10.146,0-20.291,0-30.437,0
			c-0.002-0.352-0.005-0.703-0.007-1.055c10.172,0,20.345,0,30.518,0C129.818,154.408,129.793,154.76,129.769,155.111z"/>
		<path fill-rule="evenodd" clip-rule="evenodd" fill="#8C9BA0" d="M129.862,166.439c-10.193,0-20.386,0-30.58,0
			c0.001-0.34,0.003-0.68,0.005-1.02c10.193,0,20.386,0,30.58,0C129.865,165.76,129.863,166.1,129.862,166.439z"/>
		<path fill-rule="evenodd" clip-rule="evenodd" fill="#E4DFDF" d="M196.568,168.9c-0.043,14.156-12.057,26.357-26.217,25.711
			c-16.32-0.744-25.379-11.705-25.457-25.875c-0.08-14.695,9.813-25.549,26.347-25.938
			C184.974,142.475,196.609,154.807,196.568,168.9z"/>
		<path fill-rule="evenodd" clip-rule="evenodd" fill="#89989D" d="M170.271,156.719c0.998,0,2,0.053,2.995-0.008
			c12.979-0.799,11.295,3.51,11.253,12.082c-0.02,3.773-2.119,5.813-5.926,5.908c-2.661,0.064-5.325,0.016-7.988,0.016
			c-1.504,0.002-3.103-0.135-3.863,1.574c-0.586,1.313-1.5,1.943-2.656,0.98c-1.025-0.855-0.652-2.193-0.098-3.223
			c0.84-1.553,2.167-2.463,4.035-2.447c2.33,0.018,4.66-0.021,6.989-0.029c5.792-0.016,8.595-4.643,5.966-9.793
			c-0.938-1.836-2.586-1.871-4.27-1.875c-4.992-0.014-9.986,0.018-14.979-0.027c-1.246-0.012-3.031,0.354-3.006-1.621
			c0.025-2.014,1.852-1.479,3.06-1.512C164.611,156.668,167.442,156.721,170.271,156.719z"/>
		<path fill-rule="evenodd" clip-rule="evenodd" fill="#89989D" d="M166.408,176.217h-3.187c0.008,2.556-0.013,5.113,0.069,7.667
			c0.04,1.207-0.485,3.037,1.528,3.051c1.975,0.015,1.6-1.769,1.604-3.015C166.433,181.353,166.422,178.784,166.408,176.217z"/>
	</g>
</g>
</svg>
