<?xml version="1.0" encoding="utf-8"?>
<!-- Generator: Adobe Illustrator 16.0.2, SVG Export Plug-In . SVG Version: 6.00 Build 0)  -->
<!DOCTYPE svg PUBLIC "-//W3C//DTD SVG 1.1//EN" "http://www.w3.org/Graphics/SVG/1.1/DTD/svg11.dtd">
<svg version="1.1" id="Layer_1" xmlns="http://www.w3.org/2000/svg" xmlns:xlink="http://www.w3.org/1999/xlink" x="0px" y="0px"
	 width="250px" height="250px" viewBox="0 0 250 250" enable-background="new 0 0 250 250" xml:space="preserve">
<g>
	<path fill="#FFFFFF" d="M249.923,221.773c-0.81-2.653-2.257-4.373-5.286-4.875c-8.242-1.364-8.226-1.471-8.546-10.054
		c-0.028-0.738-0.037-1.477-0.117-2.211c-0.614-5.583-3.283-8.284-8.804-8.854c-1.836-0.19-3.687-0.085-5.53-0.141
		c-5.834-0.172-6.524-0.67-6.54-6.312c-0.091-34.688-0.019-69.378-0.078-104.065c-0.006-4.183,1.522-6.021,5.817-5.951
		c7.192,0.118,14.391,0.057,21.586,0.001c3.665-0.028,6.522-1.066,7.497-5.019c0-1.109,0-2.218,0-3.326
		c-1.725-3.801-5.209-5.57-8.593-7.458c-27.052-15.091-53.785-30.753-80.932-45.672c-11.101-6.1-21.392-13.744-33.56-17.837
		c-1.109,0-2.218,0-3.327,0c-3.235,1.264-6.574,2.154-9.637,3.974c-12.381,7.353-24.995,14.309-37.526,21.404
		c-23.132,13.1-46.192,26.329-69.389,39.316c-2.68,1.5-5.676,2.813-6.532,6.274c0,1.109,0,2.218,0,3.327
		c0.95,3.563,3.388,4.95,6.944,4.996c6.642,0.087,13.284,0.01,19.926,0.057c7.805,0.056,7.986,0.203,7.991,8.13
		c0.018,32.66,0.008,65.318,0.005,97.976c-0.001,9.893-0.01,9.893-9.906,10.222c-8.092,0.269-10.823,3.009-11.127,11.171
		c-0.048,1.291-0.118,2.589-0.036,3.873c0.263,4.123-1.409,6.218-5.751,6.047c-3.722-0.144-7.031,0.665-8.047,5.007
		c0,8.316,0.115,16.635-0.073,24.947c-0.055,2.394,0.465,2.846,2.845,2.844c81.316-0.08,162.634-0.08,243.95,0
		c2.381,0,2.9-0.452,2.847-2.844C249.809,238.408,249.923,230.09,249.923,221.773z M25.397,67.533
		c15.561-8.858,29.986-17.092,44.433-25.287c17.267-9.793,34.569-19.521,51.808-29.362c2.193-1.252,3.87-1.962,6.463-0.478
		c31.854,18.236,63.794,36.325,96.9,55.127C158.016,67.533,92.388,67.533,25.397,67.533z M203.261,138.059
		c0,18.289-0.085,36.579,0.075,54.869c0.027,3.439-0.609,5.053-4.442,4.633c-5.431-0.596-12.75,2.3-15.841-1.163
		c-2.688-3.015-0.809-10.175-0.813-15.503c-0.025-32.515,0.096-65.03-0.135-97.546c-0.033-4.746,1.313-6.088,5.834-5.595
		c3.651,0.398,7.4,0.312,11.068,0.014c3.453-0.282,4.362,0.894,4.332,4.314C203.174,100.738,203.261,119.398,203.261,138.059z
		 M172.129,137.489c0,18.474-0.084,36.949,0.076,55.421c0.028,3.457-0.636,4.897-4.46,4.685c-6.075-0.34-12.19-0.221-18.28-0.032
		c-2.813,0.087-3.777-0.624-3.769-3.639c0.104-37.502,0.104-75.007,0.002-112.51c-0.009-3.063,1.081-3.718,3.854-3.634
		c5.906,0.175,11.838,0.298,17.729-0.032c3.886-0.218,4.984,0.948,4.938,4.874C172.012,100.908,172.128,119.198,172.129,137.489z
		 M135.704,138.057c-0.001,18.294-0.081,36.59,0.073,54.884c0.027,3.413-0.562,5.051-4.419,4.624
		c-5.434-0.602-12.754,2.287-15.851-1.144c-2.695-2.982-0.824-10.166-0.828-15.493c-0.027-32.525,0.099-65.052-0.138-97.576
		c-0.035-4.773,1.345-6.076,5.845-5.596c3.654,0.391,7.402,0.316,11.074,0.012c3.447-0.286,4.354,0.868,4.322,4.293
		C135.616,100.724,135.704,119.391,135.704,138.057z M78.189,81.443c-0.008-3.045,1.105-3.737,3.881-3.661
		c6.091,0.164,12.2,0.255,18.282-0.028c3.442-0.16,4.36,0.893,4.33,4.316c-0.167,18.471-0.079,36.943-0.079,55.416
		c0,18.103-0.245,36.208,0.154,54.304c0.114,5.169-1.53,6.133-6.117,5.809c-5.514-0.393-11.081-0.211-16.617-0.044
		c-2.742,0.082-3.853-0.541-3.843-3.616C78.285,156.439,78.281,118.94,78.189,81.443z M47.016,83.268
		c-0.022-4.23,0.846-6.016,5.393-5.521c3.834,0.417,7.773,0.349,11.622,0.008c3.619-0.319,4.229,1.144,4.205,4.391
		c-0.143,18.475-0.069,36.95-0.07,55.424c0,18.475-0.092,36.948,0.082,55.423c0.032,3.515-0.729,4.877-4.482,4.591
		c-5.314-0.405-12.281,1.737-15.564-0.907c-3.458-2.785-1.017-10.029-1.035-15.31C47.057,148.668,47.19,115.967,47.016,83.268z
		 M25.933,213.221c0.144-3.779,0.271-5.802,5.198-5.784c62.635,0.199,125.273,0.186,187.908,0.015
		c4.584-0.013,5.34,1.455,5.412,5.59c0.078,4.357-1.126,5.471-5.488,5.442c-31.225-0.201-62.451-0.108-93.677-0.108
		c-31.41,0-62.822-0.093-94.23,0.111C26.762,218.514,25.779,217.267,25.933,213.221z M239.599,238.244
		c-0.521,2.3-3.172,1.131-4.826,1.133c-36.743,0.069-73.489,0.052-110.234,0.052c-36.191,0-72.381,0.021-108.572-0.059
		c-1.787-0.004-4.627,1.295-5.23-1.306c-0.648-2.798-0.278-5.878-0.036-8.809c0.075-0.916,1.482-0.82,2.399-0.822
		c1.293-0.003,2.585-0.005,3.877-0.005c72.198,0,144.395-0.009,216.593,0.052c2.057,0.003,5.206-1.275,5.994,1.016
		C240.472,232.133,240.233,235.433,239.599,238.244z"/>
	<path fill="#FFFFFF" d="M161.995,46.483c-10.863-6.16-21.709-12.352-32.506-18.627c-3.011-1.75-5.717-1.729-8.737,0.033
		c-10.787,6.293-21.64,12.475-32.501,18.64c-2.521,1.43-4.913,2.969-4.212,6.304c0.765,3.645,3.633,4.041,6.835,4.018
		c11.44-0.086,22.882-0.034,34.324-0.034c11.255,0,22.511-0.008,33.767,0.005c2.979,0.003,6.097,0.301,7.137-3.523
		C167.098,49.63,164.709,48.022,161.995,46.483z M108.876,46.42c5.295-3.064,9.713-5.54,14.041-8.165
		c1.599-0.97,2.941-0.992,4.527-0.048c4.366,2.602,8.788,5.109,14.155,8.213C130.397,46.42,120.246,46.42,108.876,46.42z"/>
</g>
</svg>
