<?xml version="1.0" encoding="utf-8"?>
<!-- Generator: Adobe Illustrator 16.0.2, SVG Export Plug-In . SVG Version: 6.00 Build 0)  -->
<!DOCTYPE svg PUBLIC "-//W3C//DTD SVG 1.1//EN" "http://www.w3.org/Graphics/SVG/1.1/DTD/svg11.dtd">
<svg version="1.1" id="Layer_1" xmlns="http://www.w3.org/2000/svg" xmlns:xlink="http://www.w3.org/1999/xlink" x="0px" y="0px"
	 width="70px" height="70px" viewBox="0 0 70 70" enable-background="new 0 0 70 70" xml:space="preserve">
<g transform="translate(1 1)">
	<g>
		<g>
			<path fill="#FFFFFF" d="M58.098,60.927h-2.494V3.671c0-0.648-0.332-1.081-0.83-1.081H13.227c-0.499,0-0.831,0.432-0.831,1.081
				v57.255H9.902c-0.499,0-0.831,0.434-0.831,1.08v4.322c0,0.648,0.332,1.08,0.831,1.08h48.194c0.5,0,0.831-0.432,0.831-1.08v-4.322
				C58.928,61.359,58.596,60.927,58.098,60.927z M14.058,4.751h39.885v56.175H41.479V49.044c0-0.647-0.332-1.08-0.832-1.08H34
				h-6.647c-0.499,0-0.832,0.433-0.832,1.08v11.883H14.058V4.751z M28.184,60.927V50.124h4.985v10.803H28.184z M34.831,50.124h4.985
				v10.803h-4.985V50.124z M57.268,65.249H10.733v-2.16h2.493h14.126H34h6.646h14.125h2.494v2.16H57.268z"/>
			<path fill="#FFFFFF" d="M24.859,7.993h-6.647c-0.499,0-0.831,0.432-0.831,1.081v6.482c0,0.647,0.332,1.08,0.831,1.08h6.648
				c0.498,0,0.83-0.433,0.83-1.08V9.073C25.69,8.425,25.358,7.993,24.859,7.993z M24.029,14.474h-4.986v-4.321h4.986V14.474z"/>
			<path fill="#FFFFFF" d="M24.859,19.876h-6.647c-0.499,0-0.831,0.432-0.831,1.08v6.482c0,0.647,0.332,1.079,0.831,1.079h6.648
				c0.498,0,0.83-0.432,0.83-1.079v-6.482C25.69,20.308,25.358,19.876,24.859,19.876z M24.029,26.357h-4.986v-4.321h4.986V26.357z"
				/>
			<path fill="#FFFFFF" d="M30.676,28.519h6.648c0.496,0,0.83-0.432,0.83-1.08v-6.482c0-0.648-0.334-1.08-0.83-1.08h-6.648
				c-0.498,0-0.831,0.432-0.831,1.08v6.482C29.845,28.086,30.178,28.519,30.676,28.519z M31.508,22.036h4.985v4.321h-4.985V22.036
				L31.508,22.036z"/>
			<path fill="#FFFFFF" d="M43.141,28.519h6.646c0.499,0,0.831-0.432,0.831-1.08v-6.482c0-0.648-0.332-1.08-0.831-1.08h-6.646
				c-0.498,0-0.83,0.432-0.83,1.08v6.482C42.311,28.086,42.643,28.519,43.141,28.519z M43.971,22.036h4.985v4.321h-4.985V22.036z"/>
			<path fill="#FFFFFF" d="M30.676,40.4h6.648c0.496,0,0.83-0.433,0.83-1.08v-6.48c0-0.648-0.334-1.081-0.83-1.081h-6.648
				c-0.498,0-0.831,0.432-0.831,1.081v6.48C29.845,39.971,30.178,40.4,30.676,40.4z M31.508,33.92h4.985v4.321h-4.985V33.92
				L31.508,33.92z"/>
			<path fill="#FFFFFF" d="M43.141,40.4h6.646c0.499,0,0.831-0.433,0.831-1.08v-6.48c0-0.648-0.332-1.081-0.831-1.081h-6.646
				c-0.498,0-0.83,0.432-0.83,1.081v6.48C42.311,39.971,42.643,40.4,43.141,40.4z M43.971,33.92h4.985v4.321h-4.985V33.92z"/>
			<path fill="#FFFFFF" d="M24.859,31.759h-6.647c-0.499,0-0.831,0.431-0.831,1.08v6.481c0,0.647,0.332,1.08,0.831,1.08h6.648
				c0.498,0,0.83-0.433,0.83-1.08v-6.481C25.69,32.19,25.358,31.759,24.859,31.759z M24.029,38.241h-4.986V33.92h4.986V38.241z"/>
			<path fill="#FFFFFF" d="M30.676,16.635h6.648c0.496,0,0.83-0.433,0.83-1.08V9.073c0-0.648-0.334-1.081-0.83-1.081h-6.648
				c-0.498,0-0.831,0.432-0.831,1.081v6.482C29.845,16.203,30.178,16.635,30.676,16.635z M31.508,10.153h4.985v4.321h-4.985V10.153
				L31.508,10.153z"/>
			<path fill="#FFFFFF" d="M43.141,16.635h6.646c0.499,0,0.831-0.433,0.831-1.08V9.073c0-0.648-0.332-1.081-0.831-1.081h-6.646
				c-0.498,0-0.83,0.432-0.83,1.081v6.482C42.311,16.203,42.643,16.635,43.141,16.635z M43.971,10.153h4.985v4.321h-4.985V10.153z"
				/>
			<path fill="#FFFFFF" d="M29.014,45.805h9.97c0.5,0,0.832-0.434,0.832-1.08c0-0.647-0.332-1.082-0.832-1.082h-9.97
				c-0.499,0-0.831,0.435-0.831,1.082C28.184,45.371,28.515,45.805,29.014,45.805z"/>
		</g>
	</g>
</g>
</svg>
