<?xml version="1.0" encoding="utf-8"?>
<!-- Generator: Adobe Illustrator 16.0.2, SVG Export Plug-In . SVG Version: 6.00 Build 0)  -->
<!DOCTYPE svg PUBLIC "-//W3C//DTD SVG 1.1//EN" "http://www.w3.org/Graphics/SVG/1.1/DTD/svg11.dtd">
<svg version="1.1" id="Layer_1" xmlns="http://www.w3.org/2000/svg" xmlns:xlink="http://www.w3.org/1999/xlink" x="0px" y="0px"
	 width="70px" height="70px" viewBox="0 0 70 70" enable-background="new 0 0 70 70" xml:space="preserve">
<g>
	<g>
		<path fill="#FFFFFF" d="M60.498,33.128c2.048-1.438,3.404-3.834,3.404-6.532c0-4.416-3.57-7.986-7.985-7.986
			c-4.416,0-7.987,3.571-7.987,7.986c0,2.698,1.344,5.094,3.405,6.532c-1.758,0.609-3.362,1.551-4.72,2.769
			c-1.868-1.59-4.069-2.81-6.479-3.527c2.922-1.771,4.887-4.997,4.887-8.664c0-5.592-4.526-10.118-10.118-10.118
			c-5.592,0-10.117,4.54-10.117,10.118c0,3.667,1.951,6.893,4.886,8.664c-2.381,0.72-4.554,1.924-6.409,3.486
			c-1.356-1.188-2.935-2.118-4.664-2.712c2.048-1.439,3.405-3.833,3.405-6.532c0-4.415-3.571-7.986-7.986-7.986
			c-4.416,0-7.987,3.571-7.987,7.986c0,2.699,1.343,5.093,3.405,6.532C3.944,35.038,0,40.256,0,46.389v0.912
			c0,0.027,0.027,0.057,0.056,0.057h16.927c-0.097,0.763-0.152,1.551-0.152,2.338v0.941c0,4.069,3.294,7.363,7.363,7.363h21.453
			c4.069,0,7.363-3.294,7.363-7.363v-0.941c0-0.787-0.055-1.575-0.152-2.338h17.039c0.027,0,0.057-0.027,0.057-0.057v-0.912
			C69.924,40.243,65.992,35.024,60.498,33.128z M50.146,26.582c0-3.184,2.586-5.771,5.771-5.771c3.183,0,5.771,2.587,5.771,5.771
			c0,3.142-2.533,5.702-5.66,5.771c-0.043,0-0.068,0-0.109,0c-0.042,0-0.068,0-0.109,0C52.664,32.298,50.146,29.737,50.146,26.582z
			 M26.976,23.703c0-4.36,3.543-7.903,7.903-7.903c4.359,0,7.902,3.543,7.902,7.903c0,4.207-3.309,7.653-7.446,7.889
			c-0.152,0-0.304,0-0.456,0c-0.153,0-0.305,0-0.458,0C30.284,31.356,26.976,27.91,26.976,23.703z M8.208,26.582
			c0-3.184,2.587-5.771,5.771-5.771c3.183,0,5.771,2.587,5.771,5.771c0,3.142-2.534,5.702-5.661,5.771c-0.042,0-0.069,0-0.11,0
			s-0.07,0-0.111,0C10.741,32.298,8.208,29.737,8.208,26.582z M17.371,45.129H2.242c0.623-5.896,5.605-10.52,11.654-10.562
			c0.028,0,0.055,0,0.083,0c0.027,0,0.055,0,0.082,0c2.88,0.015,5.509,1.08,7.543,2.81C19.612,39.536,18.131,42.193,17.371,45.129z
			 M50.768,50.637c0,2.838-2.311,5.149-5.146,5.149H24.166c-2.837,0-5.149-2.312-5.149-5.149v-0.941
			c0-8.594,6.865-15.625,15.404-15.875c0.152,0.014,0.319,0.014,0.471,0.014s0.319,0,0.471-0.014
			c8.54,0.249,15.405,7.281,15.405,15.875V50.637z M52.415,45.129c-0.761-2.922-2.215-5.536-4.194-7.695
			c2.049-1.771,4.706-2.837,7.612-2.866c0.028,0,0.056,0,0.084,0c0.026,0,0.056,0,0.082,0c6.049,0.042,11.03,4.665,11.653,10.562
			L52.415,45.129L52.415,45.129z"/>
	</g>
</g>
</svg>
