<?xml version="1.0" standalone="no"?><!DOCTYPE svg PUBLIC "-//W3C//DTD SVG 1.1//EN" "http://www.w3.org/Graphics/SVG/1.1/DTD/svg11.dtd"><svg class="icon" height="512" viewBox="0 0 1024 1024" version="1.1" xmlns="http://www.w3.org/2000/svg"><path d="M512 86.4C272 86.4 86.4 275.2 86.4 512c0 153.6 80 288 201.6 364.8 64 41.6 140.8 64 224 64s160-22.4 224-64c121.6-73.6 201.6-211.2 201.6-364.8 0-236.8-188.8-425.6-425.6-425.6z" fill="#E8EAEE" /><path d="M550.4 700.8c0-28.8 6.4-51.2 6.4-51.2h-89.6s6.4 19.2 6.4 51.2c0 22.4-22.4 44.8-57.6 44.8v57.6h192v-57.6c-35.2 0-57.6-22.4-57.6-44.8z" fill="#DACDAF" /><path d="M313.6 451.2c-19.2 3.2-32 32-25.6 60.8 3.2 28.8 22.4 51.2 41.6 48s32-32 25.6-60.8c-3.2-32-22.4-51.2-41.6-48zM707.2 451.2c-19.2-3.2-38.4 16-41.6 48-3.2 28.8 6.4 57.6 25.6 60.8 19.2 3.2 38.4-16 41.6-48 3.2-28.8-9.6-57.6-25.6-60.8z" fill="#E0D4BF" /><path d="M512 211.2c-144 0-208 99.2-195.2 220.8 0 12.8 3.2 25.6 6.4 41.6 22.4 108.8 92.8 220.8 188.8 220.8 96 0 166.4-112 188.8-220.8 3.2-12.8 3.2-28.8 3.2-41.6 16-121.6-48-220.8-192-220.8z" fill="#E9E1CE" /><path d="M704 432c0 12.8-3.2 25.6-6.4 41.6-12.8-44.8-35.2-76.8-57.6-96-32 28.8-80 44.8-128 44.8-51.2 0-99.2-19.2-131.2-48-22.4 19.2-48 51.2-60.8 99.2-3.2-12.8-6.4-28.8-6.4-41.6-12.8-121.6 51.2-220.8 195.2-220.8s211.2 99.2 195.2 220.8zM512 934.4c-89.6 0-240-73.6-240-73.6 0-64 51.2-115.2 118.4-115.2h25.6v3.2c0 25.6 44.8 48 96 48 54.4 0 96-22.4 96-48v-3.2h25.6c64 0 118.4 51.2 118.4 115.2 0 0-150.4 73.6-240 73.6z" fill="#7A7F87" /><path d="M512 960c-83.2 0-166.4-22.4-236.8-67.2C137.6 812.8 64 668.8 64 512 64 265.6 262.4 64 512 64s448 201.6 448 448c0 156.8-80 300.8-214.4 384-70.4 41.6-153.6 64-233.6 64zM512 108.8C288 108.8 108.8 288 108.8 512c0 140.8 70.4 268.8 192 342.4 64 38.4 137.6 60.8 211.2 60.8s147.2-19.2 211.2-60.8c121.6-73.6 192-201.6 192-342.4C912 288 736 108.8 512 108.8z" fill="#239A80" /></svg>